HIERARCHY
ROOT Hips
{
	OFFSET 0.000000 0.000000 0.000000
	CHANNELS 6 Xposition Yposition Zposition Zrotation Yrotation Xrotation 
	JOINT LeftUpLeg_virtual
	{
		OFFSET 0.000000 0.000000 0.000000
		CHANNELS 3 Zrotation Yrotation Xrotation
		JOINT LeftUpLeg
		{
			OFFSET 8.479694 -4.795517 -0.379053
			CHANNELS 3 Zrotation Yrotation Xrotation
			JOINT LeftLeg
			{
				OFFSET 0.485052 -32.551468 0.112863
				CHANNELS 3 Zrotation Yrotation Xrotation
				JOINT LeftFoot
				{
					OFFSET 0.438033 -32.635670 -3.012641
					CHANNELS 3 Zrotation Yrotation Xrotation
					JOINT LeftToeBase
					{
						OFFSET 0.970169 -13.225353 11.864223
						CHANNELS 3 Zrotation Yrotation Xrotation
						End Site
						{
							OFFSET 0.000000 0.000000 0.000000
						}
					}
				}
			}
		}
	}
	JOINT RightUpLeg_virtual
	{
		OFFSET 0.000000 0.000000 0.000000
		CHANNELS 3 Zrotation Yrotation Xrotation
		JOINT RightUpLeg
		{
			OFFSET -8.479694 -4.795517 -0.379053
			CHANNELS 3 Zrotation Yrotation Xrotation
			JOINT RightLeg
			{
				OFFSET -0.484100 -32.551483 0.112903
				CHANNELS 3 Zrotation Yrotation Xrotation
				JOINT RightFoot
				{
					OFFSET -0.438985 -32.635651 -3.012681
					CHANNELS 3 Zrotation Yrotation Xrotation
					JOINT RightToeBase
					{
						OFFSET -0.970169 -13.225354 11.864223
						CHANNELS 3 Zrotation Yrotation Xrotation
						End Site
						{
							OFFSET 0.000000 0.000000 0.000000
						}
					}
				}
			}
		}
	}
	JOINT Spine_virtual
	{
		OFFSET 0.000000 0.000000 0.000000
		CHANNELS 3 Zrotation Yrotation Xrotation
		JOINT Spine
		{
			OFFSET 0.000000 7.722015 1.166203
			CHANNELS 3 Zrotation Yrotation Xrotation
			JOINT Spine1
			{
				OFFSET 0.000000 12.024086 0.248766
				CHANNELS 3 Zrotation Yrotation Xrotation
				JOINT Spine2
				{
					OFFSET -0.000000 11.503036 -0.491240
					CHANNELS 3 Zrotation Yrotation Xrotation
					JOINT Neck_virtual
					{
						OFFSET 0.000000 0.000000 0.000000
						CHANNELS 3 Zrotation Yrotation Xrotation
						JOINT Neck
						{
							OFFSET 0.000000 18.430687 -3.123054
							CHANNELS 3 Zrotation Yrotation Xrotation
							JOINT Head
							{
								OFFSET -0.000000 9.051071 1.034021
								CHANNELS 3 Zrotation Yrotation Xrotation
								End Site
								{
									OFFSET 0.000000 0.000000 0.000000
								}
							}
						}
					}
					JOINT LeftShoulder_virtual
					{
						OFFSET 0.000000 0.000000 0.000000
						CHANNELS 3 Zrotation Yrotation Xrotation
						JOINT LeftShoulder
						{
							OFFSET 6.197824 13.665230 -4.064723
							CHANNELS 3 Zrotation Yrotation Xrotation
							JOINT LeftArm
							{
								OFFSET 7.778132 -0.187073 -1.709282
								CHANNELS 3 Zrotation Yrotation Xrotation
								JOINT LeftForeArm
								{
									OFFSET 21.954697 0.000000 -2.041093
									CHANNELS 3 Zrotation Yrotation Xrotation
									JOINT LeftHand
									{
										OFFSET 22.992908 0.000000 -0.870901
										CHANNELS 3 Zrotation Yrotation Xrotation
										End Site
										{
											OFFSET 0.000000 0.000000 0.000000
										}
									}
								}
							}
						}
					}
					JOINT RightShoulder_virtual
					{
						OFFSET 0.000000 0.000000 0.000000
						CHANNELS 3 Zrotation Yrotation Xrotation
						JOINT RightShoulder
						{
							OFFSET -6.197824 13.665230 -4.064723
							CHANNELS 3 Zrotation Yrotation Xrotation
							JOINT RightArm
							{
								OFFSET -7.778132 -0.187073 -1.709282
								CHANNELS 3 Zrotation Yrotation Xrotation
								JOINT RightForeArm
								{
									OFFSET -21.954697 0.000000 -2.041093
									CHANNELS 3 Zrotation Yrotation Xrotation
									JOINT RightHand
									{
										OFFSET -22.992908 0.000000 -0.870901
										CHANNELS 3 Zrotation Yrotation Xrotation
										End Site
										{
											OFFSET 0.000000 0.000000 0.000000
										}
									}
								}
							}
						}
					}
				}
			}
		}
	}
}
MOTION
Frames: 7
Frame Time: 0.033333
7.950064 82.019821 18.510071 179.994514 4.838997 -179.977684 -3.987908 -0.143486 11.043929 2.380704 -1.706251 -24.050551 3.777242 5.132567 24.854888 -4.317190 -6.913635 -7.078461 0.000000 0.000000 0.000000 -0.003043 -1.054061 10.948078 -1.735162 -1.793234 -17.440014 -1.396565 3.797046 24.097187 8.373253 8.590492 -9.381718 0.000000 0.000000 0.000000 3.504499 1.656096 0.346274 -5.891734 0.006491 0.372821 1.502833 -2.847558 4.437147 -0.018351 0.135662 0.030263 1.306964 -1.780752 4.580823 1.584122 2.253720 -14.729014 0.000000 0.000000 0.000000 2.531296 -0.900445 2.005883 4.042401 -1.019857 -3.959800 -20.337624 7.437107 -38.279122 -5.323950 -20.398015 -4.782156 0.000000 0.000000 0.000000 -1.028828 0.257860 1.478513 11.544307 -4.979321 -2.081678 12.424217 -9.575672 -46.500102 -0.548164 26.983712 -2.760568 0.000000 0.000000 0.000000 
7.933852 82.012108 18.535482 179.996440 4.818991 -179.941675 -4.023898 -0.170356 11.003179 2.274958 -1.593032 -24.120524 3.711285 5.364484 24.814489 -4.224145 -6.833250 -7.225209 0.000000 0.000000 0.000000 0.033419 -1.038716 10.989511 -1.872120 -1.576060 -17.428385 -1.370487 4.056480 24.081674 8.636803 8.846908 -9.320594 0.000000 0.000000 0.000000 3.458262 1.757929 0.339366 -5.859952 0.072994 0.380548 1.505489 -2.819254 4.466508 -0.029502 -0.007889 -0.015998 1.319084 -1.767703 4.627802 1.608222 2.087033 -14.712050 0.000000 0.000000 0.000000 2.533083 -0.890623 2.108873 4.031116 -1.053216 -3.870634 -20.367052 7.355297 -38.350570 -5.272952 -20.298658 -4.780543 0.000000 0.000000 0.000000 -1.019851 0.208512 1.479050 11.604879 -5.008725 -1.994012 12.395424 -9.627959 -46.560515 -0.566686 26.907797 -2.741339 0.000000 0.000000 0.000000 
7.936703 82.005890 18.568449 179.993776 4.853910 -179.937550 -4.018031 -0.124598 11.001147 2.312974 -1.639166 -24.161680 3.745620 5.319475 24.830319 -4.178785 -6.783758 -7.226628 0.000000 0.000000 0.000000 -0.006510 -1.004922 10.982824 -1.833425 -1.568636 -17.459692 -1.343084 4.070038 24.078551 8.634524 8.795373 -9.312979 0.000000 0.000000 0.000000 3.392244 1.759258 0.373281 -5.821077 0.062160 0.396989 1.522130 -2.832355 4.411339 -0.029211 -0.021689 0.051532 1.338065 -1.751873 4.521550 1.627912 2.035388 -14.710831 0.000000 0.000000 0.000000 2.551386 -0.889037 1.997591 4.002541 -1.143889 -3.887252 -20.575228 7.511720 -38.091501 -5.222553 -20.244418 -4.701181 0.000000 0.000000 0.000000 -0.998890 0.235051 1.440731 11.602941 -4.959575 -1.932121 12.427825 -9.624706 -46.652818 -0.591374 26.849892 -2.676744 0.000000 0.000000 0.000000 
7.959056 82.000511 18.612776 -179.962671 4.889277 -179.900872 -4.028288 -0.081614 10.969841 2.348028 -1.720010 -24.213350 3.776812 5.329135 24.873286 -4.232336 -6.839819 -7.219666 0.000000 0.000000 0.000000 -0.012487 -0.956713 10.960081 -1.762814 -1.546526 -17.518155 -1.289309 4.110423 24.121684 8.596676 8.681480 -9.308070 0.000000 0.000000 0.000000 3.343813 1.769821 0.367491 -5.740010 0.048978 0.415043 1.576365 -2.835350 4.411372 0.025599 -0.020850 0.035957 1.299032 -1.808470 4.487871 1.656456 1.934746 -14.647815 0.000000 0.000000 0.000000 2.503936 -0.838940 1.984025 3.965450 -1.200218 -3.808382 -20.817978 7.520380 -37.777776 -5.121045 -20.244262 -4.655597 0.000000 0.000000 0.000000 -1.055355 0.252912 1.442795 11.531998 -4.913913 -1.889016 12.652293 -9.670168 -46.647641 -0.663873 26.858360 -2.634015 0.000000 0.000000 0.000000 
7.995738 81.998123 18.668156 -179.998202 4.873541 -179.876269 -4.049997 -0.077999 10.921539 2.377665 -1.790680 -24.245524 3.798804 5.257988 24.942656 -4.166563 -6.746362 -7.209153 0.000000 0.000000 0.000000 -0.027026 -0.920580 10.901033 -1.747526 -1.574126 -17.620730 -1.295197 4.095965 24.238338 8.622302 8.650371 -9.348845 0.000000 0.000000 0.000000 3.241568 1.822989 0.400941 -5.686886 0.073751 0.437310 1.581929 -2.817772 4.341462 0.011582 -0.013244 0.020036 1.327069 -1.797390 4.476335 1.634008 1.778748 -14.611115 0.000000 0.000000 0.000000 2.541294 -0.885243 1.965396 3.796635 -1.392676 -3.718055 -21.066399 7.573794 -37.240859 -4.985653 -20.363301 -4.490256 0.000000 0.000000 0.000000 -1.031032 0.257566 1.423274 11.628414 -4.883773 -1.773124 12.897348 -9.742237 -46.608511 -0.726220 26.955224 -2.574281 0.000000 0.000000 0.000000 
8.045375 81.995392 18.730898 -179.968928 4.894374 -179.885408 -4.069377 -0.052785 10.887145 2.472554 -1.880900 -24.290099 3.807214 5.240215 25.001371 -4.223222 -6.779761 -7.214595 0.000000 0.000000 0.000000 -0.021330 -0.877282 10.881224 -1.667743 -1.546732 -17.685323 -1.275397 4.119935 24.366017 8.576930 8.533159 -9.350417 0.000000 0.000000 0.000000 3.188228 1.834584 0.480624 -5.567936 0.079434 0.477894 1.606576 -2.810311 4.330506 0.018643 -0.013367 0.037474 1.341132 -1.774039 4.436934 1.619877 1.517780 -14.489985 0.000000 0.000000 0.000000 2.537427 -0.844000 1.925555 3.740213 -1.519717 -3.538720 -21.459568 7.547384 -36.604842 -4.744821 -20.679147 -4.165868 0.000000 0.000000 0.000000 -1.027348 0.282140 1.400076 11.740111 -4.847793 -1.498669 13.418359 -9.760071 -46.241491 -1.066078 27.184906 -2.762561 0.000000 0.000000 0.000000 
8.104266 81.995132 18.797243 179.979159 4.892955 -179.950049 -4.124859 -0.043109 10.916709 2.561573 -1.999842 -24.328956 3.800246 5.249342 25.057980 -4.216438 -6.718046 -7.176285 0.000000 0.000000 0.000000 -0.038254 -0.855128 10.898682 -1.637522 -1.535062 -17.763823 -1.278606 4.105165 24.513928 8.591598 8.479767 -9.355737 0.000000 0.000000 0.000000 3.081801 1.898605 0.608245 -5.468841 0.129662 0.534029 1.603771 -2.754860 4.300188 0.007301 0.031778 0.003089 1.338696 -1.741156 4.426877 1.524920 1.435351 -14.398554 0.000000 0.000000 0.000000 2.529823 -0.916272 1.980816 3.605436 -1.743159 -3.455188 -21.811625 7.540446 -35.870593 -4.580244 -21.183634 -4.051790 0.000000 0.000000 0.000000 -1.042936 0.232358 1.364042 11.878844 -4.917546 -1.328528 14.118985 -9.897823 -46.068106 -1.090663 27.610900 -2.666191 0.000000 0.000000 0.000000 
